<svg width="18" height="18" viewBox="0 0 18 18" fill="none" xmlns="http://www.w3.org/2000/svg">
<path d="M16.4133 4.84888H11.9375" stroke="white" stroke-width="1.11895" stroke-miterlimit="10" stroke-linecap="round" stroke-linejoin="round"/>
<path d="M4.47607 4.84888H1.49219" stroke="white" stroke-width="1.11895" stroke-miterlimit="10" stroke-linecap="round" stroke-linejoin="round"/>
<path d="M7.45855 7.4597C8.90051 7.4597 10.0694 6.29076 10.0694 4.84881C10.0694 3.40685 8.90051 2.23792 7.45855 2.23792C6.01659 2.23792 4.84766 3.40685 4.84766 4.84881C4.84766 6.29076 6.01659 7.4597 7.45855 7.4597Z" stroke="white" stroke-width="1.11895" stroke-miterlimit="10" stroke-linecap="round" stroke-linejoin="round"/>
<path d="M16.4097 13.0545H13.4258" stroke="white" stroke-width="1.11895" stroke-miterlimit="10" stroke-linecap="round" stroke-linejoin="round"/>
<path d="M5.968 13.0545H1.49219" stroke="white" stroke-width="1.11895" stroke-miterlimit="10" stroke-linecap="round" stroke-linejoin="round"/>
<path d="M10.4429 15.6653C11.8849 15.6653 13.0538 14.4964 13.0538 13.0544C13.0538 11.6125 11.8849 10.4435 10.4429 10.4435C9.00097 10.4435 7.83203 11.6125 7.83203 13.0544C7.83203 14.4964 9.00097 15.6653 10.4429 15.6653Z" stroke="white" stroke-width="1.11895" stroke-miterlimit="10" stroke-linecap="round" stroke-linejoin="round"/>
</svg>
