<svg width="47" height="47" viewBox="0 0 47 47" fill="none" xmlns="http://www.w3.org/2000/svg">
<rect width="47" height="47" fill="white" fill-opacity="0.15"/>
<path d="M23.4096 9.95557C23.5672 9.99115 24.4425 10.6981 24.6474 10.8522L28.4101 13.6694C28.8834 14.0218 29.7302 14.7165 30.2057 15.0007C30.2751 15.1164 30.3079 15.2274 30.3092 15.3616C30.3196 16.3929 30.3137 17.4303 30.3178 18.4615L30.313 21.7058C30.3123 22.2177 30.3311 22.7318 30.3188 23.2434C30.3164 23.3453 30.3279 23.537 30.2732 23.6246C30.1178 23.873 27.0521 26.0605 26.5739 26.4128L24.8153 27.7139C24.498 27.948 24.1414 28.1473 23.876 28.438C23.8086 28.7575 23.8283 29.1559 23.8295 29.488L23.8327 30.723C23.8321 31.4253 23.7419 33.2842 23.9559 33.8645C24.0578 33.91 24.3383 33.9517 24.3772 34.0347L24.3414 34.0754C24.0571 34.168 22.6572 34.0853 22.2665 34.0916C21.9789 34.0963 21.6161 34.1352 21.3279 34.1305C21.1526 34.1277 20.316 34.1427 20.2302 34.0586L20.2355 34.0091C20.3738 33.8966 20.6374 33.9901 20.7601 33.7862C20.7868 33.5441 20.278 32.1211 20.1346 31.8844C19.7426 31.9444 18.4358 31.8278 18.1548 31.9591C18.0338 32.0786 17.7031 33.044 17.6403 33.279C17.473 33.9055 18.2553 33.951 18.318 34.0475C18.1922 34.1275 16.8714 34.1889 16.8396 34.018C16.9025 33.8786 17.1025 33.7187 17.1972 33.5886C17.2664 33.4935 17.2895 33.4356 17.3679 33.3418C17.6084 32.5825 18.0367 31.5594 18.3325 30.8279C18.4967 30.4218 19.2494 28.2479 19.4709 28.1197C19.6399 28.2057 20.3492 30.1741 20.4735 30.4897C20.868 31.4911 21.2652 32.504 21.6641 33.5036C21.9115 34.1237 22.4022 34.0107 22.9158 33.8624C23.0331 33.4171 23.0234 32.931 23.0182 32.4711C23.0032 31.1408 23.0369 29.7997 23.0011 28.4705C22.8394 28.3153 22.6654 28.1856 22.4828 28.056C20.7445 26.8213 19.0635 25.5095 17.332 24.2654C17.0331 24.0506 16.7155 23.8454 16.5056 23.537C16.4679 23.1631 16.4912 22.5016 16.4877 22.1055C16.4761 21.0561 16.4729 20.0065 16.4782 18.957C16.4728 18.1085 16.4737 17.2599 16.4809 16.4114C16.4834 16.0146 16.4442 15.5271 16.5256 15.1563C16.7681 14.8912 17.3283 14.5175 17.6232 14.281C17.9873 13.989 18.3709 13.7108 18.7412 13.4284L21.0424 11.6892C21.3788 11.4303 23.1368 10.0297 23.4096 9.95557ZM17.2808 19.2872C17.8456 19.7736 18.7436 20.3928 19.3555 20.8448L22.9824 23.5489C22.9861 23.5428 23.0118 23.501 23.0118 23.501C22.9986 22.8461 23.0373 21.0331 22.9836 20.5169C22.9705 20.3914 19.8436 18.1206 19.6079 17.9417L18.0771 16.7838C17.873 16.6305 17.4716 16.2999 17.2638 16.1977C17.284 16.8975 17.2355 17.6294 17.2514 18.3334C17.2581 18.6291 17.2413 18.9967 17.2808 19.2872ZM23.8262 20.5037L23.8234 22.9419C23.8222 23.0562 23.7805 23.4861 23.801 23.5349C23.8201 23.5349 23.8401 23.5378 23.8552 23.5312C24.1092 23.303 24.3813 23.126 24.6525 22.9219C26.2822 21.6949 27.9218 20.4775 29.5577 19.2614C29.5807 19.2442 29.5945 16.4497 29.5611 16.202L29.5264 16.1785C29.3093 16.4336 28.9924 16.5781 28.7144 16.7952C28.0778 17.2923 27.4103 17.7706 26.7632 18.2537L25.2442 19.4042C24.9229 19.6443 24.0219 20.2541 23.8262 20.5037ZM20.1381 13.4506C20.4336 13.655 20.7246 13.8652 21.0095 14.0842C21.1081 14.16 21.3226 14.2966 21.405 14.3696C21.8119 14.7112 22.5667 15.2559 23.017 15.5656C22.9979 15.2239 23.0004 14.8298 23.0094 14.4859C23.0375 13.4115 22.9906 12.3372 22.9864 11.2651C22.9764 11.2573 22.9524 11.2371 22.9423 11.2334C22.7608 11.4323 22.455 11.6266 22.2429 11.8004C21.615 12.3149 20.6956 12.8883 20.1381 13.4506ZM21.9083 18.6757C22.2946 18.9492 22.6201 19.1918 23.0139 19.4625C22.98 18.6346 23.0309 17.7856 23.006 16.9557C23.0018 16.8142 23.0038 16.6692 23.0095 16.5278C22.6775 16.3253 19.5586 13.9492 19.4652 13.9342C18.9545 14.2626 18.5422 14.6122 18.0562 14.971C17.8657 15.1116 17.7117 15.2676 17.5017 15.3845C17.7597 15.5569 17.978 15.7583 18.2301 15.9346C19.4748 16.8049 20.6707 17.8043 21.9083 18.6757ZM27.3401 13.9331C26.4726 14.507 25.6075 15.2284 24.7521 15.8381C24.5182 16.0048 24.0094 16.3433 23.8251 16.5397C23.8425 17.4245 23.8434 18.6693 23.7795 19.5366C23.9717 19.3072 24.7019 18.7678 24.9653 18.6273L24.9827 18.6143C25.0869 18.5354 25.1404 18.447 25.2143 18.3948C25.3748 18.2817 25.5351 18.1886 25.695 18.0686L28.5138 15.9716C28.6782 15.8512 29.1734 15.4414 29.3269 15.3935C29.0896 15.2001 27.5045 13.9317 27.3512 13.9317C27.3475 13.9317 27.3438 13.9327 27.3401 13.9331ZM23.7855 15.5937C24.2894 15.1207 24.9109 14.7768 25.4228 14.3306C25.6171 14.2016 26.5605 13.5326 26.6262 13.3837C26.6004 13.3058 26.564 13.2733 26.4965 13.2235C25.6998 12.6347 24.9187 12.0202 24.1095 11.4495C24.0327 11.3953 23.871 11.2551 23.7966 11.2317C23.8521 11.5737 23.8255 12.4076 23.8246 12.7956C23.8224 13.7231 23.8311 14.6689 23.7855 15.5937ZM23.8388 27.4422C24.3318 27.1147 24.8423 26.7095 25.3234 26.3509L27.9689 24.3759C28.2147 24.1921 28.4678 24.0025 28.7122 23.8169C28.943 23.6417 29.3884 23.3714 29.5702 23.177L29.5744 21.2919C29.5745 21.0382 29.585 20.4898 29.5558 20.2571L29.525 20.2347C29.3252 20.4897 29.131 20.5447 28.8805 20.7348L27.1352 22.036C26.7268 22.3349 23.9443 24.3742 23.8177 24.5704C23.8344 25.3243 23.8198 26.0806 23.8252 26.8347C23.8259 26.9365 23.7803 27.3879 23.8146 27.4381L23.8388 27.4422ZM18.2513 31.6994C18.5607 31.7267 18.8714 31.7365 19.182 31.729C19.468 31.7295 19.7992 31.7367 20.0813 31.7239C19.9676 31.4177 19.2345 29.3622 19.1351 29.3017C19.1314 29.2994 19.1271 29.2982 19.1231 29.2965C18.9075 29.8946 18.713 30.4907 18.4544 31.0722C18.3736 31.254 18.3287 31.5002 18.2513 31.6994ZM17.2806 23.1484C17.5674 23.4816 18.2452 23.9263 18.6193 24.2014L20.3794 25.5066L22.172 26.8399C22.3466 26.9688 22.8583 27.385 23.0282 27.4344C22.9433 26.5441 23.0808 25.4172 22.9805 24.5494C22.9688 24.4483 20.708 22.8322 20.5317 22.7L18.6921 21.3233C18.2483 20.9892 17.7365 20.5845 17.2668 20.2977C17.2902 21.146 17.1797 22.3325 17.2806 23.1484Z" fill="#F9F9FA"/>
<path d="M29.478 29.6743C29.8827 29.6839 30.3734 29.767 30.7009 30.0327C31.6246 30.7821 31.6628 32.7375 30.9721 33.6422C30.6442 34.0718 30.0655 34.2019 29.5537 34.2563C28.2705 34.2166 27.6314 33.555 27.5592 32.2854C27.4778 30.8541 27.9122 29.7725 29.478 29.6743ZM29.7195 34.0559C30.721 33.7711 30.6775 31.6103 30.4429 30.8301C30.2355 30.1399 30.0454 29.8354 29.2915 29.8765C28.2218 30.3199 28.3173 32.5219 28.6395 33.4139C28.8193 33.912 29.1946 34.1416 29.7195 34.0559Z" fill="#F9F9FA"/>
<path d="M26.1532 29.7418C26.1882 29.7288 26.2169 29.7335 26.2544 29.735C26.4562 29.9151 26.2055 33.2447 26.412 33.7533C26.485 33.9331 26.8633 33.9816 27.034 34.0542C26.6048 34.1567 25.5312 34.1156 25.0878 34.0901C25.0011 34.0838 25.0054 34.0983 24.9512 34.0512C25.0271 33.9054 25.2992 33.9516 25.4439 33.8131C25.5587 33.5991 25.5075 30.7101 25.4874 30.2911C25.2609 30.0277 25.1063 30.0303 24.9603 29.8754L24.9619 29.8373C25.021 29.8101 25.0754 29.8153 25.1395 29.8187C25.4867 29.8369 25.812 29.8073 26.1532 29.7418Z" fill="#F9F9FA"/>
<path d="M25.6968 27.6954C26.145 27.6448 26.3143 27.8249 26.4543 28.2121C26.3811 28.5669 26.3232 28.5876 26.0225 28.7818C25.9073 28.8261 25.7061 28.7609 25.5832 28.7309C25.1941 28.3464 25.2237 27.9759 25.6968 27.6954Z" fill="#F9F9FA"/>
</svg>
