<svg width="26" height="26" viewBox="0 0 26 26" fill="none" xmlns="http://www.w3.org/2000/svg">
<path d="M12.75 0C10.2283 0 7.76321 0.747774 5.66648 2.14876C3.56976 3.54975 1.93556 5.54103 0.970541 7.87079C0.00552416 10.2005 -0.246968 12.7641 0.244993 15.2374C0.736955 17.7107 1.95127 19.9825 3.73439 21.7656C5.51751 23.5487 7.78935 24.7631 10.2626 25.255C12.7359 25.747 15.2995 25.4945 17.6292 24.5295C19.959 23.5644 21.9503 21.9302 23.3512 19.8335C24.7522 17.7368 25.5 15.2717 25.5 12.75C25.496 9.36971 24.1515 6.129 21.7612 3.73877C19.371 1.34854 16.1303 0.00396981 12.75 0ZM12.75 24C10.525 24 8.34989 23.3402 6.49984 22.104C4.64979 20.8679 3.20785 19.1109 2.35636 17.0552C1.50488 14.9995 1.28209 12.7375 1.71617 10.5552C2.15025 8.37295 3.22171 6.36839 4.79505 4.79505C6.3684 3.22171 8.37295 2.15025 10.5552 1.71617C12.7375 1.28208 14.9995 1.50487 17.0552 2.35636C19.1109 3.20784 20.8679 4.64978 22.104 6.49984C23.3402 8.34989 24 10.525 24 12.75C23.9967 15.7327 22.8104 18.5922 20.7013 20.7013C18.5922 22.8104 15.7327 23.9967 12.75 24ZM18.28 12.22C18.4205 12.3606 18.4993 12.5512 18.4993 12.75C18.4993 12.9488 18.4205 13.1394 18.28 13.28L14.28 17.28C14.1378 17.4125 13.9498 17.4846 13.7555 17.4812C13.5612 17.4777 13.3758 17.399 13.2384 17.2616C13.101 17.1242 13.0223 16.9388 13.0188 16.7445C13.0154 16.5502 13.0875 16.3622 13.22 16.22L15.9388 13.5H7.75001C7.55109 13.5 7.36033 13.421 7.21968 13.2803C7.07902 13.1397 7.00001 12.9489 7.00001 12.75C7.00001 12.5511 7.07902 12.3603 7.21968 12.2197C7.36033 12.079 7.55109 12 7.75001 12H15.9388L13.22 9.28C13.0875 9.13783 13.0154 8.94978 13.0188 8.75548C13.0223 8.56118 13.101 8.37579 13.2384 8.23838C13.3758 8.10097 13.5612 8.02225 13.7555 8.01882C13.9498 8.0154 14.1378 8.08752 14.28 8.22L18.28 12.22Z" fill="#FAFAFA"/>
</svg>
